# xmcd CD database file
#
# Track frame offsets:
#	150
#	17513
#	34417
#	53083
#	85375
#	100083
#	125707
#	141938
#	163644
#	181781
#	199601
#	220137
#	238005
#	252876
#	269193
#	284798
#	298564
#
# Disc length: 4415 seconds
#
# Revision: 3
# Processed by: cddbd v1.5.1PL0 Copyright (c) Steve Scherf et al.
# Submitted via: CDex 1.51
#
DISCID=06113d11
DTITLE=Good Whiskey Blues - Blues (Tenessy) - Part1
DYEAR=1900
DGENRE=Blues
TTITLE0=Doug Davis Band-Down Dont't Bother Me
TTITLE1=Michael Henderson and The Blues Blood - Ramblin' On My Mind
TTITLE2=Tombstone Bullets feat Jimmy Hall- Murdered By Love
TTITLE3=Toler Brothers- Goin' Down Slow
TTITLE4=Billy C.Farlow- A Little Meat On The Side
TTITLE5=Fredie and The Screamers- Full Moon On The Main Street
TTITLE6=Hypnotics- Womanizer
TTITLE7=Jim Liban- Skin Huger
TTITLE8=Beat Daddys- Livin' This Love
TTITLE9=Bleu Jackson- Lightning
TTITLE10=Steddy Eddy- Blue Train
TTITLE11=Zip Gibson- Smoking Hookan Blues
TTITLE12=Modo Man- Midnight Drag
TTITLE13=Bleu Jackson- You Left Your Mark On Me
TTITLE14=Kent Earl Houseman- Margarita Drive
TTITLE15=Sy Klops Blues Band- Steppin' Stone
TTITLE16=Jerry Miler Band- Now I See
EXTD=
EXTT0=
EXTT1=
EXTT2=
EXTT3=
EXTT4=
EXTT5=
EXTT6=
EXTT7=
EXTT8=
EXTT9=
EXTT10=
EXTT11=
EXTT12=
EXTT13=
EXTT14=
EXTT15=
EXTT16=
PLAYORDER=
